<svg width="20" height="20" viewBox="0 0 20 20" fill="none" xmlns="http://www.w3.org/2000/svg">
<path fill-rule="evenodd" clip-rule="evenodd" d="M11.5605 1.7585C10.8705 0.524917 9.12949 0.524919 8.43954 1.7585L0.239458 16.4194C-0.445204 17.6436 0.419937 19.1666 1.79992 19.1666H18.2001C19.5801 19.1666 20.4452 17.6436 19.7605 16.4194L11.5605 1.7585ZM11.4464 8.31869L10.9435 12.0906C10.8804 12.5635 10.477 12.9166 9.99998 12.9166C9.52293 12.9166 9.11956 12.5635 9.05651 12.0906L8.55359 8.31869C8.43695 7.44393 9.11748 6.66665 9.99998 6.66665C10.8825 6.66665 11.563 7.44393 11.4464 8.31869ZM11.25 15.4166C11.25 16.107 10.6903 16.6666 9.99998 16.6666C9.30963 16.6666 8.74998 16.107 8.74998 15.4166C8.74998 14.7263 9.30963 14.1666 9.99998 14.1666C10.6903 14.1666 11.25 14.7263 11.25 15.4166Z" fill="#E22850"/>
</svg>
